# xmcd
#
# Track frame offsets:
#	150
#	2655
#	23167
#	43262
#	63377
#	78810
#	98090
#	100985
#	121650
#	142590
#	161767
#	182520
#
# Disc length: 2680 seconds
#
# Revision: 1
# Processed by: cddbd v1.4PL0 Copyright (c) Steve Scherf et al.
# Submitted via: audiograbber 1.80
#
DISCID=870a760c
DTITLE=고한우 - Go Han Woo 1집
DYEAR=1900
DGENRE=
TTITLE0=Intro
TTITLE1=암연
TTITLE2=너 하나만 사랑해
TTITLE3=언제라도 내게로
TTITLE4=Stranger
TTITLE5=예정된 이별
TTITLE6=雨
TTITLE7=비애(悲哀)
TTITLE8=또 다른 하루
TTITLE9=네가 보고파 지면
TTITLE10=내마음의 너
TTITLE11=우리 겨울 이야기
EXTD=
EXTT0=
EXTT1=
EXTT2=
EXTT3=
EXTT4=
EXTT5=
EXTT6=
EXTT7=
EXTT8=
EXTT9=
EXTT10=
EXTT11=
PLAYORDER=
